<svg width="24" height="24" viewBox="0 0 24 24" fill="none" xmlns="http://www.w3.org/2000/svg">
    <path fill-rule="evenodd" clip-rule="evenodd" d="M5.90417 8.36996C7.05 6.16996 9.35083 4.66663 12 4.66663C15.3367 4.66663 18.1142 7.04079 18.7375 10.2033C21.1208 10.3683 23 12.33 23 14.75C23 17.28 20.9467 19.3333 18.4167 19.3333H6.5C3.46583 19.3333 1 16.8675 1 13.8333C1 11.0008 3.145 8.66329 5.90417 8.36996ZM16.9408 10.5608C16.4733 8.205 14.4017 6.5 12 6.5C10.1117 6.5 8.40667 7.545 7.53583 9.2225L7.0775 10.0933L6.09667 10.1942C4.23583 10.3867 2.83333 11.9542 2.83333 13.8333C2.83333 15.8592 4.47417 17.5 6.5 17.5H18.4167C19.9292 17.5 21.1667 16.2625 21.1667 14.75C21.1667 13.3292 20.0483 12.1283 18.6183 12.0367L17.2158 11.9358L16.9408 10.5608Z" fill="#BDBDBD"/>
</svg>
